HIERARCHY
ROOT Hips
{
	OFFSET 0.00000 0.00000 0.00000
	CHANNELS 6 Xposition Yposition Zposition Zrotation Yrotation Xrotation 
	JOINT LHipJoint
	{
		OFFSET 0 0 0
		CHANNELS 3 Zrotation Yrotation Xrotation
		JOINT LeftHip
		{
			OFFSET 1.62329 -1.80800 0.67318
			CHANNELS 3 Zrotation Yrotation Xrotation
			JOINT LeftKnee
			{
				OFFSET 2.57139 -7.06484 0.00000
				CHANNELS 3 Zrotation Yrotation Xrotation
				JOINT LeftAnkle
				{
					OFFSET 2.52017 -6.92413 0.00000
					CHANNELS 3 Zrotation Yrotation Xrotation
					JOINT LeftToe
					{
						OFFSET 0.23295 -0.64001 2.10214
						CHANNELS 3 Zrotation Yrotation Xrotation
						End Site
						{
							OFFSET 0.00000 -0.00000 1.10139
						}
					}
				}
			}
		}
	}
	JOINT RHipJoint
	{
		OFFSET 0 0 0
		CHANNELS 3 Zrotation Yrotation Xrotation
		JOINT RightHip
		{
			OFFSET -1.48061 -1.80800 0.67318
			CHANNELS 3 Zrotation Yrotation Xrotation
			JOINT RightKnee
			{
				OFFSET -2.63258 -7.23296 0.00000
				CHANNELS 3 Zrotation Yrotation Xrotation
				JOINT RightAnkle
				{
					OFFSET -2.54779 -7.00000 0.00000
					CHANNELS 3 Zrotation Yrotation Xrotation
					JOINT RightToe
					{
						OFFSET -0.23067 -0.63376 2.12161
						CHANNELS 3 Zrotation Yrotation Xrotation
						End Site
						{
							OFFSET -0.00000 -0.00000 1.11000
						}
					}
				}
			}
		}
	}
	JOINT lowerback
	{
		OFFSET 0 0 0
		CHANNELS 3 Zrotation Yrotation Xrotation
		JOINT Chest
		{
			OFFSET -0.02108 2.07573 -0.16981
			CHANNELS 3 Zrotation Yrotation Xrotation
			JOINT Chest2
			{
				OFFSET 0.05070 2.08439 -0.03141
				CHANNELS 3 Zrotation Yrotation Xrotation
				JOINT lowerneck
				{
					OFFSET 0 0 0
					CHANNELS 3 Zrotation Yrotation Xrotation
					JOINT Neck
					{
						OFFSET -0.10731 1.60408 0.31370
						CHANNELS 3 Zrotation Yrotation Xrotation
						JOINT Head
						{
							OFFSET 0.08411 1.65679 -0.30822
							CHANNELS 3 Zrotation Yrotation Xrotation
							End Site
							{
								OFFSET 0.03911 1.69149 -0.14146
							}
						}
					}
				}
				JOINT LeftCollar
				{
					OFFSET 0 0 0
					CHANNELS 3 Zrotation Yrotation Xrotation
					JOINT LeftShoulder
					{
						OFFSET 3.52315 0.73219 -0.54694
CHANNELS 3 Zrotation Xrotation Yrotation
						JOINT LeftElbow
						{
OFFSET 0 -5.324620 -0.000000
CHANNELS 3 Zrotation Xrotation Yrotation
							JOINT LeftWrist
							{
OFFSET 0 -3.484020 -0.000000
CHANNELS 3 Zrotation Xrotation Yrotation
								JOINT lhand
								{
									OFFSET 0 0 0
CHANNELS 3 Zrotation Xrotation Yrotation
									JOINT LFingers
									{
OFFSET 0 -0.572480 -0.000000
CHANNELS 3 Zrotation Xrotation Yrotation
										End Site
										{
OFFSET 0 -0.461540 -0.000000
										}
									}
								}
								JOINT LThumb
								{
OFFSET 0 0.000000 0.000000
CHANNELS 3 Zrotation Xrotation Yrotation
									End Site
									{
OFFSET 0 -0.468590 0.468590
									}
								}
							}
						}
					}
				}
				JOINT RightCollar
				{
					OFFSET 0 0 0
					CHANNELS 3 Zrotation Yrotation Xrotation
					JOINT RightShoulder
					{
						OFFSET -3.41766 0.93592 -0.10019
CHANNELS 3 Zrotation Xrotation Yrotation
						JOINT RightElbow
						{
OFFSET 0 -5.335890 -0.000000
CHANNELS 3 Zrotation Xrotation Yrotation
							JOINT RightWrist
							{
OFFSET 0 -3.641340 -0.000000
CHANNELS 3 Zrotation Xrotation Yrotation
								JOINT rhand
								{
									OFFSET 0 0 0
CHANNELS 3 Zrotation Xrotation Yrotation
									JOINT RFingers
									{
OFFSET 0 -0.734810 -0.000000
CHANNELS 3 Zrotation Xrotation Yrotation
										End Site
										{
OFFSET 0 -0.592420 -0.000000
										}
									}
								}
								JOINT RThumb
								{
OFFSET 0 0.000000 0.000000
CHANNELS 3 Zrotation Xrotation Yrotation
									End Site
									{
OFFSET 0 -0.601470 0.601470
									}
								}
							}
						}
					}
				}
			}
		}
	}
}
MOTION
Frames: 8
Frame Time: 0.008333333333333333
3.666773 15.230330 -3.061171 363.159162 21.418935 384.358982 0.000000 0.000000 0.000000 -7.127359 0.575916 -67.089479 12.455702 18.576412 67.425758 0.388888 -16.415299 -15.131379 1.299480 -7.222041 -20.374924 0.000000 0.000000 0.000000 4.853769 -3.622768 -74.631128 -13.555961 -18.973219 70.843210 -1.005472 7.763059 -17.937744 -0.000040 -0.050034 0.137338 1.223227 -1.608188 27.937786 3.763902 -1.222885 10.133619 3.800704 -0.555192 -4.027246 -9.920312 -4.605631 -11.407250 3.589069 -4.989108 31.872455 2.419662 -2.811608 12.899452 0.000000 0.000000 0.000000 21.842604 -0.194247 -59.080654 55.767358 -55.071849 30.844279 53.067894 34.151370 -8.319376 0.000000 0.000000 0.000000 -7.125000 0.000000 0.000000 23.632250 42.349384 1.645788 0.000000 0.000000 0.000000 -37.800239 3.447071 65.289225 -82.152027 -59.765771 -53.208801 -76.472260 18.657828 -7.657041 0.000000 0.000000 0.000000 7.125000 0.000000 0.000000 -30.507463 2.942637 -34.286193
3.566193 14.790735 -3.230918 362.503588 24.800035 384.424137 0.000000 0.000000 0.000000 -4.793931 -1.129114 -70.884157 13.899663 19.082359 71.897032 0.454535 -17.762254 -16.377496 0.837386 -5.836797 -16.311833 0.000000 0.000000 0.000000 5.516311 -5.525527 -78.209018 -15.200042 -19.437492 75.837908 -1.108108 7.170648 -18.800153 -0.008980 -0.610854 1.678564 1.465601 -1.556482 28.729397 3.611961 -1.042846 10.547534 3.454272 -0.446129 -3.951666 -10.115798 -4.468059 -12.339825 3.868293 -4.695247 32.412146 2.604466 -2.663145 13.318982 0.000000 0.000000 0.000000 22.878838 -0.940745 -58.289509 58.743812 -55.964395 33.298305 56.420311 41.442611 -11.408857 0.000000 0.000000 0.000000 -7.125000 0.000000 0.000000 28.697407 47.756022 -2.150216 0.000000 0.000000 0.000000 -38.725175 4.552046 65.037496 -85.201678 -59.912131 -55.845745 -84.992110 -20.808554 -13.393208 0.000000 0.000000 0.000000 7.125000 0.000000 0.000000 -37.248781 -30.617679 -58.282128
3.465071 14.300272 -3.370084 361.397546 27.268495 383.944334 0.000000 0.000000 0.000000 -1.954466 -2.034517 -75.515091 15.543751 19.517037 76.869246 0.437036 -19.014050 -16.913399 1.371195 -7.410739 -20.938223 0.000000 0.000000 0.000000 6.275863 -6.602473 -81.685785 -16.956484 -19.776394 81.069420 -1.215724 5.984177 -19.720637 -0.042398 -1.328279 3.652641 1.395955 -1.184753 29.705273 3.503416 -0.541846 10.903262 3.236748 -0.191613 -4.026961 -10.510565 -4.341515 -12.683798 4.358670 -4.498047 32.219670 2.891731 -2.553051 13.318210 0.000000 0.000000 0.000000 23.666027 -0.362195 -57.364995 64.998406 -57.501004 38.529664 59.901916 52.656807 -14.759163 0.000000 0.000000 0.000000 -7.125000 0.000000 0.000000 35.650742 53.859414 -8.609321 0.000000 0.000000 0.000000 -40.081002 6.304035 64.988917 -89.869995 -59.999894 -59.887454 -98.460019 174.768440 12.072827 0.000000 0.000000 0.000000 7.125000 0.000000 0.000000 -122.210413 52.648657 91.662470
3.352368 13.786397 -3.497290 360.085783 29.386746 383.077005 0.000000 0.000000 0.000000 1.259401 -2.537469 -79.647806 17.391958 19.834854 82.354076 0.405441 -20.198014 -17.345633 1.267360 -7.128338 -20.099219 0.000000 0.000000 0.000000 7.050095 -7.202805 -84.960563 -18.769720 -19.962754 86.400653 -1.428089 5.122824 -21.496362 -0.039600 -1.284859 3.532916 1.297991 -0.755628 30.762787 3.463231 0.024781 11.103787 3.083098 0.090479 -4.307515 -10.870615 -4.183024 -12.477818 4.799292 -4.308285 31.938569 3.155980 -2.451722 13.156278 0.000000 0.000000 0.000000 24.654604 1.368830 -57.066097 73.089651 -58.889376 45.409982 61.424271 56.038222 -15.013838 0.000000 0.000000 0.000000 -7.125000 0.000000 0.000000 38.193348 54.807334 -10.318452 0.000000 0.000000 0.000000 -41.272589 8.511891 65.215290 -94.023936 -59.937912 -63.484081 -103.898714 200.244110 8.308551 0.000000 0.000000 0.000000 7.125000 0.000000 0.000000 -140.689308 37.623047 117.984114
3.243845 13.297932 -3.600286 359.407731 31.790645 381.964718 0.000000 0.000000 0.000000 3.798477 -3.387189 -83.033261 19.127767 19.981251 87.449041 0.272705 -21.860887 -17.392516 1.046646 -6.505877 -18.259377 0.000000 0.000000 0.000000 7.135172 -8.433338 -87.398754 -20.584705 -19.991153 91.709964 -1.676873 4.777280 -23.411842 -0.036424 -1.231351 3.385595 0.908203 -0.628881 31.865898 3.547116 0.152806 11.468424 3.375172 0.157254 -4.391306 -11.180690 -3.988538 -12.925887 4.911866 -3.905270 32.383770 3.325765 -2.299199 13.417387 0.000000 0.000000 0.000000 24.666315 2.549921 -56.194062 79.372422 -59.568019 50.809676 63.032952 63.800747 -17.114663 0.000000 0.000000 0.000000 -7.125000 0.000000 0.000000 43.459655 58.403073 -16.188431 0.000000 0.000000 0.000000 -42.539805 10.279222 65.526332 -97.925981 -59.760670 -66.858524 -105.496661 204.355047 8.249558 0.000000 0.000000 0.000000 7.125000 0.000000 0.000000 -142.335656 36.572996 121.030141
3.136442 12.776797 -3.723002 358.690466 33.940379 381.108264 0.000000 0.000000 0.000000 6.134312 -3.916284 -87.054146 20.716554 19.987361 92.095529 0.023045 -23.830535 -16.970910 0.950221 -6.207761 -17.388456 0.000000 0.000000 0.000000 7.023255 -9.368934 -90.314126 -22.304792 -19.871664 96.752702 -1.884901 4.289184 -24.955901 -0.048605 -1.418789 3.902084 0.621014 -0.588188 32.699108 3.787711 0.195383 11.576169 3.759808 0.175811 -4.518362 -11.903048 -3.818419 -12.237133 5.049921 -3.577142 31.695901 3.541831 -2.214547 12.967461 0.000000 0.000000 0.000000 24.261790 3.646155 -55.509751 84.820644 -59.896413 55.516194 65.722364 67.674791 -16.086829 0.000000 0.000000 0.000000 -7.125000 0.000000 0.000000 47.201500 58.107628 -17.649850 0.000000 0.000000 0.000000 -43.621255 11.664351 65.778098 -100.858818 -59.549570 -69.389802 -107.813904 224.614909 3.085025 0.000000 0.000000 0.000000 7.125000 0.000000 0.000000 -148.449845 21.749568 133.398699
3.027310 12.292395 -3.801590 358.161806 35.806918 379.513558 0.000000 0.000000 0.000000 7.913451 -4.047686 -89.817034 22.131069 19.890088 96.241934 -0.294247 -25.751745 -16.248512 0.805331 -5.727278 -15.995254 0.000000 0.000000 0.000000 6.836272 -10.345802 -92.091495 -23.930427 -19.624694 101.561502 -2.139384 3.722984 -26.762990 -0.165826 -2.623306 7.231652 0.432920 -0.370972 33.737384 3.778778 0.450679 11.813426 3.558630 0.296197 -4.283619 -11.573422 -3.851816 -11.563594 5.112427 -3.789432 31.004023 3.464562 -2.249720 12.546319 0.000000 0.000000 0.000000 24.897476 3.968409 -55.201676 89.628719 -59.999346 59.678442 66.895292 69.844702 -15.748796 0.000000 0.000000 0.000000 -7.125000 0.000000 0.000000 49.095156 58.148816 -18.666755 0.000000 0.000000 0.000000 -43.152987 12.961460 64.794419 -103.695679 -59.278829 -71.832090 -108.541592 227.052088 2.880971 0.000000 0.000000 0.000000 7.125000 0.000000 0.000000 -148.947604 21.414014 134.409910
2.919417 11.835958 -3.874649 357.728249 37.510525 377.740503 0.000000 0.000000 0.000000 9.189082 -3.879449 -92.211774 23.378595 19.724061 99.922237 -0.507114 -26.687728 -15.577930 0.776244 -5.625301 -15.701028 0.000000 0.000000 0.000000 6.461643 -11.441517 -93.374979 -25.379476 -19.291491 105.909178 -2.369241 3.650804 -28.239453 -0.227111 -3.067529 8.466732 0.543175 -0.551670 34.562975 3.433372 0.295198 12.164788 3.189676 0.248701 -4.181567 -11.735252 -3.673042 -11.164498 5.697027 -3.705726 31.029258 3.737112 -2.164761 12.474079 0.000000 0.000000 0.000000 26.013697 4.900833 -54.700681 93.656497 -59.949391 63.166114 68.978507 78.343810 -17.889686 0.000000 0.000000 0.000000 -7.125000 0.000000 0.000000 58.191868 61.739844 -28.776165 0.000000 0.000000 0.000000 -43.317343 12.946072 64.213004 -106.258416 -58.977257 -74.031841 -108.886923 225.510670 3.752837 0.000000 0.000000 0.000000 7.125000 0.000000 0.000000 -148.623439 23.888119 133.353173
